<mxfile host="app.diagrams.net" modified="2022-03-20T21:06:28.416Z" agent="5.0 (Windows NT 10.0; Win64; x64) AppleWebKit/537.36 (KHTML, like Gecko) Chrome/99.0.4844.74 Safari/537.36" etag="CbD1wt9EGIFlsgRXby6Y" version="17.1.3" type="github" pages="2">
  <diagram id="R2lEEEUBdFMjLlhIrx00" name="Diagrama de casos de uso">
    <mxGraphModel dx="1038" dy="571" grid="1" gridSize="10" guides="1" tooltips="1" connect="1" arrows="1" fold="1" page="1" pageScale="1" pageWidth="850" pageHeight="1100" math="0" shadow="0" extFonts="Permanent Marker^https://fonts.googleapis.com/css?family=Permanent+Marker">
      <root>
        <mxCell id="0" />
        <mxCell id="1" parent="0" />
        <mxCell id="sP9VUXePV4afESUhmUl7-15" value="" style="rounded=0;whiteSpace=wrap;html=1;fillColor=none;" parent="1" vertex="1">
          <mxGeometry x="190" y="150" width="400" height="1000" as="geometry" />
        </mxCell>
        <mxCell id="sP9VUXePV4afESUhmUl7-1" value="&lt;b&gt;DIAGRAMA DE CASOS DE USO&lt;/b&gt;" style="text;html=1;align=center;verticalAlign=middle;resizable=0;points=[];autosize=1;strokeColor=none;fillColor=none;" parent="1" vertex="1">
          <mxGeometry x="45" y="10" width="200" height="20" as="geometry" />
        </mxCell>
        <mxCell id="sP9VUXePV4afESUhmUl7-2" value="¿Qué es lo que se supone que el sistema debe hacer los usuarios?" style="text;html=1;align=center;verticalAlign=middle;resizable=0;points=[];autosize=1;strokeColor=none;fillColor=none;" parent="1" vertex="1">
          <mxGeometry x="450" y="10" width="370" height="20" as="geometry" />
        </mxCell>
        <mxCell id="sP9VUXePV4afESUhmUl7-3" value="&lt;b&gt;Responde a la pregunta:&lt;/b&gt;" style="text;html=1;align=center;verticalAlign=middle;resizable=0;points=[];autosize=1;strokeColor=none;fillColor=none;" parent="1" vertex="1">
          <mxGeometry x="295" y="10" width="160" height="20" as="geometry" />
        </mxCell>
        <mxCell id="sP9VUXePV4afESUhmUl7-42" style="edgeStyle=none;rounded=0;orthogonalLoop=1;jettySize=auto;html=1;exitX=1;exitY=0.3333333333333333;exitDx=0;exitDy=0;exitPerimeter=0;entryX=0;entryY=0.5;entryDx=0;entryDy=0;" parent="1" source="sP9VUXePV4afESUhmUl7-4" target="sP9VUXePV4afESUhmUl7-23" edge="1">
          <mxGeometry relative="1" as="geometry" />
        </mxCell>
        <mxCell id="sP9VUXePV4afESUhmUl7-43" style="edgeStyle=none;rounded=0;orthogonalLoop=1;jettySize=auto;html=1;exitX=1;exitY=0.3333333333333333;exitDx=0;exitDy=0;exitPerimeter=0;entryX=0;entryY=0.5;entryDx=0;entryDy=0;" parent="1" source="sP9VUXePV4afESUhmUl7-4" target="sP9VUXePV4afESUhmUl7-22" edge="1">
          <mxGeometry relative="1" as="geometry" />
        </mxCell>
        <mxCell id="sP9VUXePV4afESUhmUl7-44" style="edgeStyle=none;rounded=0;orthogonalLoop=1;jettySize=auto;html=1;exitX=1;exitY=0.3333333333333333;exitDx=0;exitDy=0;exitPerimeter=0;entryX=0;entryY=0.5;entryDx=0;entryDy=0;" parent="1" source="sP9VUXePV4afESUhmUl7-4" target="sP9VUXePV4afESUhmUl7-7" edge="1">
          <mxGeometry relative="1" as="geometry" />
        </mxCell>
        <mxCell id="sP9VUXePV4afESUhmUl7-45" style="edgeStyle=none;rounded=0;orthogonalLoop=1;jettySize=auto;html=1;exitX=1;exitY=0.3333333333333333;exitDx=0;exitDy=0;exitPerimeter=0;entryX=0;entryY=0.5;entryDx=0;entryDy=0;" parent="1" source="sP9VUXePV4afESUhmUl7-4" target="sP9VUXePV4afESUhmUl7-25" edge="1">
          <mxGeometry relative="1" as="geometry" />
        </mxCell>
        <mxCell id="sP9VUXePV4afESUhmUl7-46" style="edgeStyle=none;rounded=0;orthogonalLoop=1;jettySize=auto;html=1;exitX=1;exitY=0.3333333333333333;exitDx=0;exitDy=0;exitPerimeter=0;entryX=0;entryY=0.5;entryDx=0;entryDy=0;" parent="1" source="sP9VUXePV4afESUhmUl7-4" target="sP9VUXePV4afESUhmUl7-26" edge="1">
          <mxGeometry relative="1" as="geometry" />
        </mxCell>
        <mxCell id="sP9VUXePV4afESUhmUl7-47" style="edgeStyle=none;rounded=0;orthogonalLoop=1;jettySize=auto;html=1;exitX=1;exitY=0.3333333333333333;exitDx=0;exitDy=0;exitPerimeter=0;entryX=0;entryY=0.5;entryDx=0;entryDy=0;" parent="1" source="sP9VUXePV4afESUhmUl7-4" target="sP9VUXePV4afESUhmUl7-24" edge="1">
          <mxGeometry relative="1" as="geometry" />
        </mxCell>
        <mxCell id="sP9VUXePV4afESUhmUl7-56" style="edgeStyle=none;rounded=0;orthogonalLoop=1;jettySize=auto;html=1;exitX=1;exitY=0.3333333333333333;exitDx=0;exitDy=0;exitPerimeter=0;entryX=0;entryY=0.5;entryDx=0;entryDy=0;" parent="1" source="sP9VUXePV4afESUhmUl7-4" target="sP9VUXePV4afESUhmUl7-55" edge="1">
          <mxGeometry relative="1" as="geometry" />
        </mxCell>
        <mxCell id="8d7muXbZ429ovShrKA1F-3" style="rounded=0;orthogonalLoop=1;jettySize=auto;html=1;exitX=1;exitY=0.3333333333333333;exitDx=0;exitDy=0;exitPerimeter=0;entryX=0;entryY=0.5;entryDx=0;entryDy=0;" edge="1" parent="1" source="sP9VUXePV4afESUhmUl7-4" target="8d7muXbZ429ovShrKA1F-2">
          <mxGeometry relative="1" as="geometry" />
        </mxCell>
        <mxCell id="8d7muXbZ429ovShrKA1F-4" style="edgeStyle=none;rounded=0;orthogonalLoop=1;jettySize=auto;html=1;exitX=1;exitY=0.3333333333333333;exitDx=0;exitDy=0;exitPerimeter=0;entryX=0;entryY=0.5;entryDx=0;entryDy=0;" edge="1" parent="1" source="sP9VUXePV4afESUhmUl7-4" target="8d7muXbZ429ovShrKA1F-1">
          <mxGeometry relative="1" as="geometry" />
        </mxCell>
        <mxCell id="8d7muXbZ429ovShrKA1F-8" style="edgeStyle=none;rounded=0;orthogonalLoop=1;jettySize=auto;html=1;exitX=1;exitY=0.3333333333333333;exitDx=0;exitDy=0;exitPerimeter=0;entryX=-0.017;entryY=0.668;entryDx=0;entryDy=0;entryPerimeter=0;" edge="1" parent="1" source="sP9VUXePV4afESUhmUl7-4" target="8d7muXbZ429ovShrKA1F-7">
          <mxGeometry relative="1" as="geometry" />
        </mxCell>
        <mxCell id="8d7muXbZ429ovShrKA1F-11" style="edgeStyle=none;rounded=0;orthogonalLoop=1;jettySize=auto;html=1;exitX=1;exitY=0.3333333333333333;exitDx=0;exitDy=0;exitPerimeter=0;entryX=0;entryY=0.5;entryDx=0;entryDy=0;" edge="1" parent="1" source="sP9VUXePV4afESUhmUl7-4" target="8d7muXbZ429ovShrKA1F-10">
          <mxGeometry relative="1" as="geometry" />
        </mxCell>
        <mxCell id="sP9VUXePV4afESUhmUl7-4" value="Coordinador(a) PIE" style="shape=umlActor;verticalLabelPosition=bottom;verticalAlign=top;html=1;outlineConnect=0;" parent="1" vertex="1">
          <mxGeometry x="50" y="440" width="30" height="60" as="geometry" />
        </mxCell>
        <mxCell id="sP9VUXePV4afESUhmUl7-5" value="Esto se lo realiza en la etapa de ingeniera de requisitos. (en la etapa de analisis)" style="text;html=1;align=center;verticalAlign=middle;resizable=0;points=[];autosize=1;strokeColor=none;fillColor=none;" parent="1" vertex="1">
          <mxGeometry x="30" y="40" width="440" height="20" as="geometry" />
        </mxCell>
        <mxCell id="sP9VUXePV4afESUhmUl7-6" value="Requisistos funcionales" style="text;html=1;align=center;verticalAlign=middle;resizable=0;points=[];autosize=1;strokeColor=none;fillColor=none;" parent="1" vertex="1">
          <mxGeometry x="600" y="170" width="140" height="20" as="geometry" />
        </mxCell>
        <mxCell id="sP9VUXePV4afESUhmUl7-7" value="Iniciar sesión" style="ellipse;whiteSpace=wrap;html=1;" parent="1" vertex="1">
          <mxGeometry x="245" y="570" width="115" height="50" as="geometry" />
        </mxCell>
        <mxCell id="sP9VUXePV4afESUhmUl7-9" value="Representa el ecomportamiento del sistema desde la perspectiva del usuario (el actor)" style="text;html=1;align=center;verticalAlign=middle;resizable=0;points=[];autosize=1;strokeColor=none;fillColor=none;" parent="1" vertex="1">
          <mxGeometry x="20" y="60" width="480" height="20" as="geometry" />
        </mxCell>
        <mxCell id="sP9VUXePV4afESUhmUl7-10" value="Describe lo QUE el software hace, y no el cómo" style="text;html=1;align=center;verticalAlign=middle;resizable=0;points=[];autosize=1;strokeColor=none;fillColor=none;" parent="1" vertex="1">
          <mxGeometry x="30" y="80" width="270" height="20" as="geometry" />
        </mxCell>
        <mxCell id="sP9VUXePV4afESUhmUl7-11" value="Describe la interacción entre el actor y el sistema" style="text;html=1;align=center;verticalAlign=middle;resizable=0;points=[];autosize=1;strokeColor=none;fillColor=none;" parent="1" vertex="1">
          <mxGeometry x="25" y="100" width="280" height="20" as="geometry" />
        </mxCell>
        <mxCell id="sP9VUXePV4afESUhmUl7-12" value="consta de 2 partes:" style="text;html=1;align=center;verticalAlign=middle;resizable=0;points=[];autosize=1;strokeColor=none;fillColor=none;" parent="1" vertex="1">
          <mxGeometry x="440" y="90" width="120" height="20" as="geometry" />
        </mxCell>
        <mxCell id="sP9VUXePV4afESUhmUl7-13" value="diagrama(parte gráfica) y especificación funcional analítica (documento)" style="text;html=1;align=center;verticalAlign=middle;resizable=0;points=[];autosize=1;strokeColor=none;fillColor=none;" parent="1" vertex="1">
          <mxGeometry x="435" y="110" width="400" height="20" as="geometry" />
        </mxCell>
        <mxCell id="sP9VUXePV4afESUhmUl7-57" style="edgeStyle=none;rounded=0;orthogonalLoop=1;jettySize=auto;html=1;exitX=0;exitY=0.3333333333333333;exitDx=0;exitDy=0;exitPerimeter=0;entryX=1;entryY=0.5;entryDx=0;entryDy=0;" parent="1" source="sP9VUXePV4afESUhmUl7-17" target="sP9VUXePV4afESUhmUl7-24" edge="1">
          <mxGeometry relative="1" as="geometry" />
        </mxCell>
        <mxCell id="sP9VUXePV4afESUhmUl7-59" style="edgeStyle=none;rounded=0;orthogonalLoop=1;jettySize=auto;html=1;exitX=0;exitY=0.3333333333333333;exitDx=0;exitDy=0;exitPerimeter=0;entryX=1;entryY=0.5;entryDx=0;entryDy=0;" parent="1" source="sP9VUXePV4afESUhmUl7-17" target="sP9VUXePV4afESUhmUl7-55" edge="1">
          <mxGeometry relative="1" as="geometry" />
        </mxCell>
        <mxCell id="sP9VUXePV4afESUhmUl7-17" value="Administrador" style="shape=umlActor;verticalLabelPosition=bottom;verticalAlign=top;html=1;outlineConnect=0;" parent="1" vertex="1">
          <mxGeometry x="730" y="490" width="30" height="60" as="geometry" />
        </mxCell>
        <mxCell id="sP9VUXePV4afESUhmUl7-18" value="PIE App" style="text;html=1;align=center;verticalAlign=middle;resizable=0;points=[];autosize=1;strokeColor=none;fillColor=none;" parent="1" vertex="1">
          <mxGeometry x="355" y="160" width="60" height="20" as="geometry" />
        </mxCell>
        <mxCell id="sP9VUXePV4afESUhmUl7-50" style="edgeStyle=none;rounded=0;orthogonalLoop=1;jettySize=auto;html=1;exitX=1;exitY=0.3333333333333333;exitDx=0;exitDy=0;exitPerimeter=0;entryX=0.037;entryY=0.764;entryDx=0;entryDy=0;entryPerimeter=0;fillColor=#f8cecc;strokeColor=#b85450;" parent="1" source="sP9VUXePV4afESUhmUl7-19" target="sP9VUXePV4afESUhmUl7-7" edge="1">
          <mxGeometry relative="1" as="geometry" />
        </mxCell>
        <mxCell id="sP9VUXePV4afESUhmUl7-51" style="edgeStyle=none;rounded=0;orthogonalLoop=1;jettySize=auto;html=1;exitX=1;exitY=0.3333333333333333;exitDx=0;exitDy=0;exitPerimeter=0;entryX=0.031;entryY=0.684;entryDx=0;entryDy=0;entryPerimeter=0;fillColor=#f8cecc;strokeColor=#b85450;" parent="1" source="sP9VUXePV4afESUhmUl7-19" target="sP9VUXePV4afESUhmUl7-22" edge="1">
          <mxGeometry relative="1" as="geometry" />
        </mxCell>
        <mxCell id="sP9VUXePV4afESUhmUl7-52" style="edgeStyle=none;rounded=0;orthogonalLoop=1;jettySize=auto;html=1;exitX=1;exitY=0.3333333333333333;exitDx=0;exitDy=0;exitPerimeter=0;entryX=0;entryY=0.5;entryDx=0;entryDy=0;fillColor=#f8cecc;strokeColor=#b85450;" parent="1" source="sP9VUXePV4afESUhmUl7-19" target="sP9VUXePV4afESUhmUl7-23" edge="1">
          <mxGeometry relative="1" as="geometry" />
        </mxCell>
        <mxCell id="sP9VUXePV4afESUhmUl7-54" style="edgeStyle=none;rounded=0;orthogonalLoop=1;jettySize=auto;html=1;exitX=1;exitY=0.3333333333333333;exitDx=0;exitDy=0;exitPerimeter=0;entryX=0.05;entryY=0.804;entryDx=0;entryDy=0;entryPerimeter=0;fillColor=#f8cecc;strokeColor=#b85450;" parent="1" source="sP9VUXePV4afESUhmUl7-19" target="sP9VUXePV4afESUhmUl7-25" edge="1">
          <mxGeometry relative="1" as="geometry" />
        </mxCell>
        <mxCell id="8d7muXbZ429ovShrKA1F-5" style="edgeStyle=none;rounded=0;orthogonalLoop=1;jettySize=auto;html=1;exitX=1;exitY=0.3333333333333333;exitDx=0;exitDy=0;exitPerimeter=0;entryX=0.03;entryY=0.668;entryDx=0;entryDy=0;entryPerimeter=0;fillColor=#f8cecc;strokeColor=#b85450;" edge="1" parent="1" source="sP9VUXePV4afESUhmUl7-19" target="8d7muXbZ429ovShrKA1F-1">
          <mxGeometry relative="1" as="geometry" />
        </mxCell>
        <mxCell id="8d7muXbZ429ovShrKA1F-6" style="edgeStyle=none;rounded=0;orthogonalLoop=1;jettySize=auto;html=1;exitX=1;exitY=0.3333333333333333;exitDx=0;exitDy=0;exitPerimeter=0;entryX=0;entryY=0.5;entryDx=0;entryDy=0;fillColor=#f8cecc;strokeColor=#b85450;" edge="1" parent="1" source="sP9VUXePV4afESUhmUl7-19" target="8d7muXbZ429ovShrKA1F-2">
          <mxGeometry relative="1" as="geometry" />
        </mxCell>
        <mxCell id="8d7muXbZ429ovShrKA1F-9" style="edgeStyle=none;rounded=0;orthogonalLoop=1;jettySize=auto;html=1;exitX=1;exitY=0.3333333333333333;exitDx=0;exitDy=0;exitPerimeter=0;entryX=0;entryY=0.5;entryDx=0;entryDy=0;fillColor=#f8cecc;strokeColor=#b85450;" edge="1" parent="1" source="sP9VUXePV4afESUhmUl7-19" target="sP9VUXePV4afESUhmUl7-26">
          <mxGeometry relative="1" as="geometry" />
        </mxCell>
        <mxCell id="8d7muXbZ429ovShrKA1F-12" style="edgeStyle=none;rounded=0;orthogonalLoop=1;jettySize=auto;html=1;exitX=1;exitY=0.3333333333333333;exitDx=0;exitDy=0;exitPerimeter=0;fillColor=#f8cecc;strokeColor=#b85450;" edge="1" parent="1" source="sP9VUXePV4afESUhmUl7-19">
          <mxGeometry relative="1" as="geometry">
            <mxPoint x="240" y="420" as="targetPoint" />
          </mxGeometry>
        </mxCell>
        <mxCell id="sP9VUXePV4afESUhmUl7-19" value="Profesionales PIE" style="shape=umlActor;verticalLabelPosition=bottom;verticalAlign=top;html=1;outlineConnect=0;" parent="1" vertex="1">
          <mxGeometry x="60" y="750" width="30" height="60" as="geometry" />
        </mxCell>
        <mxCell id="sP9VUXePV4afESUhmUl7-38" style="edgeStyle=none;rounded=0;orthogonalLoop=1;jettySize=auto;html=1;exitX=1;exitY=0.5;exitDx=0;exitDy=0;entryX=0;entryY=0.5;entryDx=0;entryDy=0;dashed=1;" parent="1" source="sP9VUXePV4afESUhmUl7-22" target="sP9VUXePV4afESUhmUl7-37" edge="1">
          <mxGeometry relative="1" as="geometry" />
        </mxCell>
        <mxCell id="sP9VUXePV4afESUhmUl7-22" value="Listar estudiantes" style="ellipse;whiteSpace=wrap;html=1;" parent="1" vertex="1">
          <mxGeometry x="250" y="860" width="115" height="50" as="geometry" />
        </mxCell>
        <mxCell id="sP9VUXePV4afESUhmUl7-23" value="Cerrar sesión" style="ellipse;whiteSpace=wrap;html=1;" parent="1" vertex="1">
          <mxGeometry x="250" y="950" width="115" height="50" as="geometry" />
        </mxCell>
        <mxCell id="sP9VUXePV4afESUhmUl7-24" value="Habilitar Permisos" style="ellipse;whiteSpace=wrap;html=1;" parent="1" vertex="1">
          <mxGeometry x="245" y="330" width="115" height="50" as="geometry" />
        </mxCell>
        <mxCell id="sP9VUXePV4afESUhmUl7-25" value="Subir informes (anual)" style="ellipse;whiteSpace=wrap;html=1;fillColor=#dae8fc;strokeColor=#6c8ebf;" parent="1" vertex="1">
          <mxGeometry x="245" y="640" width="115" height="50" as="geometry" />
        </mxCell>
        <mxCell id="sP9VUXePV4afESUhmUl7-26" value="Descargar informes" style="ellipse;whiteSpace=wrap;html=1;" parent="1" vertex="1">
          <mxGeometry x="245" y="500" width="115" height="50" as="geometry" />
        </mxCell>
        <mxCell id="sP9VUXePV4afESUhmUl7-27" value="Verificar usuario" style="ellipse;whiteSpace=wrap;html=1;" parent="1" vertex="1">
          <mxGeometry x="455" y="530" width="115" height="50" as="geometry" />
        </mxCell>
        <mxCell id="sP9VUXePV4afESUhmUl7-31" style="rounded=0;orthogonalLoop=1;jettySize=auto;html=1;exitX=0;exitY=0.5;exitDx=0;exitDy=0;entryX=1;entryY=1;entryDx=0;entryDy=0;dashed=1;" parent="1" source="sP9VUXePV4afESUhmUl7-28" target="sP9VUXePV4afESUhmUl7-7" edge="1">
          <mxGeometry relative="1" as="geometry">
            <Array as="points" />
          </mxGeometry>
        </mxCell>
        <mxCell id="sP9VUXePV4afESUhmUl7-32" value="&amp;lt;&amp;lt;extendes&amp;gt;&amp;gt;" style="edgeLabel;html=1;align=center;verticalAlign=middle;resizable=0;points=[];" parent="sP9VUXePV4afESUhmUl7-31" vertex="1" connectable="0">
          <mxGeometry x="0.6762" relative="1" as="geometry">
            <mxPoint x="47" y="12" as="offset" />
          </mxGeometry>
        </mxCell>
        <mxCell id="sP9VUXePV4afESUhmUl7-28" value="Enviar mensaje de error" style="ellipse;whiteSpace=wrap;html=1;" parent="1" vertex="1">
          <mxGeometry x="455" y="605" width="115" height="50" as="geometry" />
        </mxCell>
        <mxCell id="sP9VUXePV4afESUhmUl7-29" value="" style="endArrow=classic;html=1;rounded=0;dashed=1;" parent="1" source="sP9VUXePV4afESUhmUl7-7" target="sP9VUXePV4afESUhmUl7-27" edge="1">
          <mxGeometry relative="1" as="geometry">
            <mxPoint x="360" y="600" as="sourcePoint" />
            <mxPoint x="460" y="600" as="targetPoint" />
          </mxGeometry>
        </mxCell>
        <mxCell id="sP9VUXePV4afESUhmUl7-30" value="&amp;lt;&amp;lt;includes&amp;gt;&amp;gt;" style="edgeLabel;resizable=0;html=1;align=center;verticalAlign=middle;fillColor=none;" parent="sP9VUXePV4afESUhmUl7-29" connectable="0" vertex="1">
          <mxGeometry relative="1" as="geometry" />
        </mxCell>
        <mxCell id="sP9VUXePV4afESUhmUl7-40" style="edgeStyle=none;rounded=0;orthogonalLoop=1;jettySize=auto;html=1;exitX=0.5;exitY=1;exitDx=0;exitDy=0;entryX=0.5;entryY=0;entryDx=0;entryDy=0;dashed=1;" parent="1" source="sP9VUXePV4afESUhmUl7-35" target="sP9VUXePV4afESUhmUl7-37" edge="1">
          <mxGeometry relative="1" as="geometry" />
        </mxCell>
        <mxCell id="sP9VUXePV4afESUhmUl7-35" value="Listar por nivel&amp;nbsp;" style="ellipse;whiteSpace=wrap;html=1;" parent="1" vertex="1">
          <mxGeometry x="400" y="755" width="115" height="50" as="geometry" />
        </mxCell>
        <mxCell id="sP9VUXePV4afESUhmUl7-39" style="edgeStyle=none;rounded=0;orthogonalLoop=1;jettySize=auto;html=1;exitX=0.5;exitY=0;exitDx=0;exitDy=0;entryX=0.5;entryY=1;entryDx=0;entryDy=0;dashed=1;" parent="1" source="sP9VUXePV4afESUhmUl7-36" target="sP9VUXePV4afESUhmUl7-37" edge="1">
          <mxGeometry relative="1" as="geometry" />
        </mxCell>
        <mxCell id="sP9VUXePV4afESUhmUl7-36" value="Listar por curso" style="ellipse;whiteSpace=wrap;html=1;" parent="1" vertex="1">
          <mxGeometry x="400" y="930" width="115" height="50" as="geometry" />
        </mxCell>
        <mxCell id="sP9VUXePV4afESUhmUl7-37" value="Listar por diagnostico" style="ellipse;whiteSpace=wrap;html=1;" parent="1" vertex="1">
          <mxGeometry x="400" y="840" width="115" height="50" as="geometry" />
        </mxCell>
        <mxCell id="sP9VUXePV4afESUhmUl7-55" value="Registrar usuarios" style="ellipse;whiteSpace=wrap;html=1;" parent="1" vertex="1">
          <mxGeometry x="240" y="210" width="115" height="50" as="geometry" />
        </mxCell>
        <mxCell id="8d7muXbZ429ovShrKA1F-1" value="Subir estados de avance (trimestral)" style="ellipse;whiteSpace=wrap;html=1;fillColor=#dae8fc;strokeColor=#6c8ebf;" vertex="1" parent="1">
          <mxGeometry x="245" y="700" width="115" height="50" as="geometry" />
        </mxCell>
        <mxCell id="8d7muXbZ429ovShrKA1F-2" value="Subir informe diagnostico (anual minimo. depende al diagnostico)" style="ellipse;whiteSpace=wrap;html=1;fillColor=#dae8fc;strokeColor=#6c8ebf;" vertex="1" parent="1">
          <mxGeometry x="245" y="770" width="125" height="70" as="geometry" />
        </mxCell>
        <mxCell id="8d7muXbZ429ovShrKA1F-7" value="Registrar Alumno (se maneja maximos)" style="ellipse;whiteSpace=wrap;html=1;" vertex="1" parent="1">
          <mxGeometry x="240" y="270" width="115" height="50" as="geometry" />
        </mxCell>
        <mxCell id="8d7muXbZ429ovShrKA1F-10" value="Reportar observaciones" style="ellipse;whiteSpace=wrap;html=1;" vertex="1" parent="1">
          <mxGeometry x="240" y="390" width="115" height="50" as="geometry" />
        </mxCell>
      </root>
    </mxGraphModel>
  </diagram>
  <diagram id="hP8lvqibMLeL0AtpCVoE" name="Modelo conceptual">
    <mxGraphModel dx="2048" dy="672" grid="1" gridSize="10" guides="1" tooltips="1" connect="1" arrows="1" fold="1" page="1" pageScale="1" pageWidth="827" pageHeight="1169" math="0" shadow="0">
      <root>
        <mxCell id="Qt71bgw4_jijU8MRH2HP-0" />
        <mxCell id="Qt71bgw4_jijU8MRH2HP-1" parent="Qt71bgw4_jijU8MRH2HP-0" />
        <mxCell id="_HtvMuEh33XnxZPbHY7F-9" style="edgeStyle=none;rounded=0;orthogonalLoop=1;jettySize=auto;html=1;exitX=0.5;exitY=1;exitDx=0;exitDy=0;entryX=0.5;entryY=0;entryDx=0;entryDy=0;endArrow=none;endFill=0;" edge="1" parent="Qt71bgw4_jijU8MRH2HP-1" source="Qt71bgw4_jijU8MRH2HP-2" target="Qt71bgw4_jijU8MRH2HP-3">
          <mxGeometry relative="1" as="geometry">
            <mxPoint x="160" y="430" as="targetPoint" />
          </mxGeometry>
        </mxCell>
        <mxCell id="_HtvMuEh33XnxZPbHY7F-75" style="edgeStyle=none;rounded=0;orthogonalLoop=1;jettySize=auto;html=1;exitX=1;exitY=0.5;exitDx=0;exitDy=0;entryX=0;entryY=0.5;entryDx=0;entryDy=0;endArrow=none;endFill=0;" edge="1" parent="Qt71bgw4_jijU8MRH2HP-1" source="Qt71bgw4_jijU8MRH2HP-2" target="_HtvMuEh33XnxZPbHY7F-74">
          <mxGeometry relative="1" as="geometry" />
        </mxCell>
        <mxCell id="Qt71bgw4_jijU8MRH2HP-2" value="profesionales_pie" style="rounded=1;arcSize=10;whiteSpace=wrap;html=1;align=center;" vertex="1" parent="Qt71bgw4_jijU8MRH2HP-1">
          <mxGeometry x="110" y="290" width="100" height="40" as="geometry" />
        </mxCell>
        <mxCell id="_HtvMuEh33XnxZPbHY7F-39" style="edgeStyle=none;rounded=0;orthogonalLoop=1;jettySize=auto;html=1;exitX=0.5;exitY=1;exitDx=0;exitDy=0;entryX=0.5;entryY=0;entryDx=0;entryDy=0;endArrow=none;endFill=0;" edge="1" parent="Qt71bgw4_jijU8MRH2HP-1" source="Qt71bgw4_jijU8MRH2HP-3" target="_HtvMuEh33XnxZPbHY7F-31">
          <mxGeometry relative="1" as="geometry" />
        </mxCell>
        <mxCell id="Qt71bgw4_jijU8MRH2HP-3" value="atiende" style="shape=rhombus;perimeter=rhombusPerimeter;whiteSpace=wrap;html=1;align=center;" vertex="1" parent="Qt71bgw4_jijU8MRH2HP-1">
          <mxGeometry x="100" y="480" width="120" height="60" as="geometry" />
        </mxCell>
        <mxCell id="_HtvMuEh33XnxZPbHY7F-96" style="edgeStyle=none;rounded=0;orthogonalLoop=1;jettySize=auto;html=1;exitX=1;exitY=0;exitDx=0;exitDy=0;entryX=0;entryY=1;entryDx=0;entryDy=0;endArrow=none;endFill=0;" edge="1" parent="Qt71bgw4_jijU8MRH2HP-1" source="Qt71bgw4_jijU8MRH2HP-4" target="_HtvMuEh33XnxZPbHY7F-94">
          <mxGeometry relative="1" as="geometry" />
        </mxCell>
        <mxCell id="_HtvMuEh33XnxZPbHY7F-97" style="edgeStyle=none;rounded=0;orthogonalLoop=1;jettySize=auto;html=1;exitX=1;exitY=0.5;exitDx=0;exitDy=0;entryX=0;entryY=0.5;entryDx=0;entryDy=0;endArrow=none;endFill=0;" edge="1" parent="Qt71bgw4_jijU8MRH2HP-1" source="Qt71bgw4_jijU8MRH2HP-4" target="_HtvMuEh33XnxZPbHY7F-95">
          <mxGeometry relative="1" as="geometry" />
        </mxCell>
        <mxCell id="Qt71bgw4_jijU8MRH2HP-4" value="rol" style="rounded=1;arcSize=10;whiteSpace=wrap;html=1;align=center;" vertex="1" parent="Qt71bgw4_jijU8MRH2HP-1">
          <mxGeometry x="470" y="280" width="100" height="40" as="geometry" />
        </mxCell>
        <mxCell id="_HtvMuEh33XnxZPbHY7F-0" style="edgeStyle=none;rounded=0;orthogonalLoop=1;jettySize=auto;html=1;exitX=1;exitY=0.5;exitDx=0;exitDy=0;entryX=0.5;entryY=0;entryDx=0;entryDy=0;endArrow=none;endFill=0;" edge="1" parent="Qt71bgw4_jijU8MRH2HP-1" source="Qt71bgw4_jijU8MRH2HP-5" target="Qt71bgw4_jijU8MRH2HP-2">
          <mxGeometry relative="1" as="geometry" />
        </mxCell>
        <mxCell id="Qt71bgw4_jijU8MRH2HP-5" value="&lt;u&gt;Rut&lt;/u&gt;" style="ellipse;whiteSpace=wrap;html=1;" vertex="1" parent="Qt71bgw4_jijU8MRH2HP-1">
          <mxGeometry x="30" y="200" width="80" height="40" as="geometry" />
        </mxCell>
        <mxCell id="_HtvMuEh33XnxZPbHY7F-1" style="edgeStyle=none;rounded=0;orthogonalLoop=1;jettySize=auto;html=1;exitX=1;exitY=0.5;exitDx=0;exitDy=0;endArrow=none;endFill=0;" edge="1" parent="Qt71bgw4_jijU8MRH2HP-1" source="Qt71bgw4_jijU8MRH2HP-6" target="Qt71bgw4_jijU8MRH2HP-2">
          <mxGeometry relative="1" as="geometry" />
        </mxCell>
        <mxCell id="Qt71bgw4_jijU8MRH2HP-6" value="nombre" style="ellipse;whiteSpace=wrap;html=1;" vertex="1" parent="Qt71bgw4_jijU8MRH2HP-1">
          <mxGeometry x="-20" y="250" width="80" height="40" as="geometry" />
        </mxCell>
        <mxCell id="_HtvMuEh33XnxZPbHY7F-3" style="edgeStyle=none;rounded=0;orthogonalLoop=1;jettySize=auto;html=1;exitX=1;exitY=0.5;exitDx=0;exitDy=0;entryX=0;entryY=1;entryDx=0;entryDy=0;endArrow=none;endFill=0;" edge="1" parent="Qt71bgw4_jijU8MRH2HP-1" source="Qt71bgw4_jijU8MRH2HP-7" target="Qt71bgw4_jijU8MRH2HP-2">
          <mxGeometry relative="1" as="geometry" />
        </mxCell>
        <mxCell id="Qt71bgw4_jijU8MRH2HP-7" value="función (rol)" style="ellipse;whiteSpace=wrap;html=1;" vertex="1" parent="Qt71bgw4_jijU8MRH2HP-1">
          <mxGeometry y="350" width="80" height="40" as="geometry" />
        </mxCell>
        <mxCell id="_HtvMuEh33XnxZPbHY7F-4" style="edgeStyle=none;rounded=0;orthogonalLoop=1;jettySize=auto;html=1;exitX=1;exitY=0;exitDx=0;exitDy=0;entryX=0.366;entryY=1.07;entryDx=0;entryDy=0;entryPerimeter=0;endArrow=none;endFill=0;" edge="1" parent="Qt71bgw4_jijU8MRH2HP-1" source="Qt71bgw4_jijU8MRH2HP-8" target="Qt71bgw4_jijU8MRH2HP-2">
          <mxGeometry relative="1" as="geometry" />
        </mxCell>
        <mxCell id="Qt71bgw4_jijU8MRH2HP-8" value="cursos a cargo" style="ellipse;whiteSpace=wrap;html=1;" vertex="1" parent="Qt71bgw4_jijU8MRH2HP-1">
          <mxGeometry x="30" y="400" width="80" height="40" as="geometry" />
        </mxCell>
        <mxCell id="_HtvMuEh33XnxZPbHY7F-7" style="edgeStyle=none;rounded=0;orthogonalLoop=1;jettySize=auto;html=1;exitX=0.5;exitY=1;exitDx=0;exitDy=0;entryX=0.63;entryY=-0.01;entryDx=0;entryDy=0;entryPerimeter=0;endArrow=none;endFill=0;" edge="1" parent="Qt71bgw4_jijU8MRH2HP-1" source="Qt71bgw4_jijU8MRH2HP-9" target="Qt71bgw4_jijU8MRH2HP-2">
          <mxGeometry relative="1" as="geometry" />
        </mxCell>
        <mxCell id="Qt71bgw4_jijU8MRH2HP-9" value="horas de contrato" style="ellipse;whiteSpace=wrap;html=1;" vertex="1" parent="Qt71bgw4_jijU8MRH2HP-1">
          <mxGeometry x="140" y="160" width="80" height="40" as="geometry" />
        </mxCell>
        <mxCell id="_HtvMuEh33XnxZPbHY7F-8" style="edgeStyle=none;rounded=0;orthogonalLoop=1;jettySize=auto;html=1;exitX=0.5;exitY=1;exitDx=0;exitDy=0;entryX=0.894;entryY=0.01;entryDx=0;entryDy=0;entryPerimeter=0;endArrow=none;endFill=0;" edge="1" parent="Qt71bgw4_jijU8MRH2HP-1" source="Qt71bgw4_jijU8MRH2HP-10" target="Qt71bgw4_jijU8MRH2HP-2">
          <mxGeometry relative="1" as="geometry" />
        </mxCell>
        <mxCell id="Qt71bgw4_jijU8MRH2HP-10" value="distribución carga horaria (pdf)" style="ellipse;whiteSpace=wrap;html=1;" vertex="1" parent="Qt71bgw4_jijU8MRH2HP-1">
          <mxGeometry x="200" y="190" width="100" height="50" as="geometry" />
        </mxCell>
        <mxCell id="_HtvMuEh33XnxZPbHY7F-2" style="edgeStyle=none;rounded=0;orthogonalLoop=1;jettySize=auto;html=1;exitX=1;exitY=0.5;exitDx=0;exitDy=0;entryX=0;entryY=0.5;entryDx=0;entryDy=0;endArrow=none;endFill=0;" edge="1" parent="Qt71bgw4_jijU8MRH2HP-1" source="Qt71bgw4_jijU8MRH2HP-11" target="Qt71bgw4_jijU8MRH2HP-2">
          <mxGeometry relative="1" as="geometry" />
        </mxCell>
        <mxCell id="Qt71bgw4_jijU8MRH2HP-11" value="profesión" style="ellipse;whiteSpace=wrap;html=1;" vertex="1" parent="Qt71bgw4_jijU8MRH2HP-1">
          <mxGeometry x="-40" y="310" width="80" height="40" as="geometry" />
        </mxCell>
        <mxCell id="_HtvMuEh33XnxZPbHY7F-21" style="edgeStyle=none;rounded=0;orthogonalLoop=1;jettySize=auto;html=1;exitX=1;exitY=0.5;exitDx=0;exitDy=0;endArrow=none;endFill=0;" edge="1" parent="Qt71bgw4_jijU8MRH2HP-1" source="_HtvMuEh33XnxZPbHY7F-5" target="_HtvMuEh33XnxZPbHY7F-16">
          <mxGeometry relative="1" as="geometry" />
        </mxCell>
        <mxCell id="_HtvMuEh33XnxZPbHY7F-81" style="edgeStyle=none;rounded=0;orthogonalLoop=1;jettySize=auto;html=1;exitX=0.5;exitY=0;exitDx=0;exitDy=0;entryX=0.5;entryY=1;entryDx=0;entryDy=0;endArrow=none;endFill=0;" edge="1" parent="Qt71bgw4_jijU8MRH2HP-1" source="_HtvMuEh33XnxZPbHY7F-5" target="_HtvMuEh33XnxZPbHY7F-80">
          <mxGeometry relative="1" as="geometry" />
        </mxCell>
        <mxCell id="_HtvMuEh33XnxZPbHY7F-5" value="cursos con PIE" style="rounded=1;arcSize=10;whiteSpace=wrap;html=1;align=center;" vertex="1" parent="Qt71bgw4_jijU8MRH2HP-1">
          <mxGeometry x="490" y="490" width="100" height="40" as="geometry" />
        </mxCell>
        <mxCell id="_HtvMuEh33XnxZPbHY7F-26" style="edgeStyle=none;rounded=0;orthogonalLoop=1;jettySize=auto;html=1;exitX=1;exitY=0.5;exitDx=0;exitDy=0;entryX=0;entryY=0.5;entryDx=0;entryDy=0;endArrow=none;endFill=0;" edge="1" parent="Qt71bgw4_jijU8MRH2HP-1" source="_HtvMuEh33XnxZPbHY7F-14" target="_HtvMuEh33XnxZPbHY7F-5">
          <mxGeometry relative="1" as="geometry" />
        </mxCell>
        <mxCell id="_HtvMuEh33XnxZPbHY7F-14" value="&lt;u&gt;Id&lt;/u&gt;" style="ellipse;whiteSpace=wrap;html=1;" vertex="1" parent="Qt71bgw4_jijU8MRH2HP-1">
          <mxGeometry x="410" y="420" width="80" height="40" as="geometry" />
        </mxCell>
        <mxCell id="_HtvMuEh33XnxZPbHY7F-15" value="nivel" style="rounded=1;arcSize=10;whiteSpace=wrap;html=1;align=center;" vertex="1" parent="Qt71bgw4_jijU8MRH2HP-1">
          <mxGeometry x="880" y="490" width="100" height="40" as="geometry" />
        </mxCell>
        <mxCell id="_HtvMuEh33XnxZPbHY7F-22" style="edgeStyle=none;rounded=0;orthogonalLoop=1;jettySize=auto;html=1;exitX=1;exitY=0.5;exitDx=0;exitDy=0;entryX=0;entryY=0.5;entryDx=0;entryDy=0;endArrow=none;endFill=0;" edge="1" parent="Qt71bgw4_jijU8MRH2HP-1" source="_HtvMuEh33XnxZPbHY7F-16" target="_HtvMuEh33XnxZPbHY7F-15">
          <mxGeometry relative="1" as="geometry" />
        </mxCell>
        <mxCell id="_HtvMuEh33XnxZPbHY7F-16" value="pertence" style="shape=rhombus;perimeter=rhombusPerimeter;whiteSpace=wrap;html=1;align=center;" vertex="1" parent="Qt71bgw4_jijU8MRH2HP-1">
          <mxGeometry x="660" y="480" width="120" height="60" as="geometry" />
        </mxCell>
        <mxCell id="_HtvMuEh33XnxZPbHY7F-27" style="edgeStyle=none;rounded=0;orthogonalLoop=1;jettySize=auto;html=1;exitX=1;exitY=0.5;exitDx=0;exitDy=0;entryX=0;entryY=0.75;entryDx=0;entryDy=0;endArrow=none;endFill=0;" edge="1" parent="Qt71bgw4_jijU8MRH2HP-1" source="_HtvMuEh33XnxZPbHY7F-17" target="_HtvMuEh33XnxZPbHY7F-5">
          <mxGeometry relative="1" as="geometry" />
        </mxCell>
        <mxCell id="_HtvMuEh33XnxZPbHY7F-17" value="nombre" style="ellipse;whiteSpace=wrap;html=1;" vertex="1" parent="Qt71bgw4_jijU8MRH2HP-1">
          <mxGeometry x="380" y="480" width="80" height="40" as="geometry" />
        </mxCell>
        <mxCell id="_HtvMuEh33XnxZPbHY7F-28" style="edgeStyle=none;rounded=0;orthogonalLoop=1;jettySize=auto;html=1;exitX=0.5;exitY=0;exitDx=0;exitDy=0;entryX=0.25;entryY=1;entryDx=0;entryDy=0;endArrow=none;endFill=0;" edge="1" parent="Qt71bgw4_jijU8MRH2HP-1" source="_HtvMuEh33XnxZPbHY7F-18" target="_HtvMuEh33XnxZPbHY7F-5">
          <mxGeometry relative="1" as="geometry" />
        </mxCell>
        <mxCell id="_HtvMuEh33XnxZPbHY7F-18" value="profesor jefe" style="ellipse;whiteSpace=wrap;html=1;" vertex="1" parent="Qt71bgw4_jijU8MRH2HP-1">
          <mxGeometry x="370" y="540" width="80" height="40" as="geometry" />
        </mxCell>
        <mxCell id="_HtvMuEh33XnxZPbHY7F-29" style="edgeStyle=none;rounded=0;orthogonalLoop=1;jettySize=auto;html=1;exitX=0.5;exitY=1;exitDx=0;exitDy=0;entryX=0.75;entryY=0;entryDx=0;entryDy=0;endArrow=none;endFill=0;" edge="1" parent="Qt71bgw4_jijU8MRH2HP-1" source="_HtvMuEh33XnxZPbHY7F-19" target="_HtvMuEh33XnxZPbHY7F-15">
          <mxGeometry relative="1" as="geometry" />
        </mxCell>
        <mxCell id="_HtvMuEh33XnxZPbHY7F-19" value="&lt;u&gt;Id&lt;/u&gt;" style="ellipse;whiteSpace=wrap;html=1;" vertex="1" parent="Qt71bgw4_jijU8MRH2HP-1">
          <mxGeometry x="950" y="410" width="80" height="40" as="geometry" />
        </mxCell>
        <mxCell id="_HtvMuEh33XnxZPbHY7F-30" style="edgeStyle=none;rounded=0;orthogonalLoop=1;jettySize=auto;html=1;exitX=0;exitY=1;exitDx=0;exitDy=0;entryX=1;entryY=0;entryDx=0;entryDy=0;endArrow=none;endFill=0;" edge="1" parent="Qt71bgw4_jijU8MRH2HP-1" source="_HtvMuEh33XnxZPbHY7F-20" target="_HtvMuEh33XnxZPbHY7F-15">
          <mxGeometry relative="1" as="geometry" />
        </mxCell>
        <mxCell id="_HtvMuEh33XnxZPbHY7F-20" value="nombre" style="ellipse;whiteSpace=wrap;html=1;" vertex="1" parent="Qt71bgw4_jijU8MRH2HP-1">
          <mxGeometry x="1010" y="450" width="80" height="40" as="geometry" />
        </mxCell>
        <mxCell id="_HtvMuEh33XnxZPbHY7F-23" value="(1,1)" style="text;html=1;align=center;verticalAlign=middle;resizable=0;points=[];autosize=1;strokeColor=none;fillColor=none;" vertex="1" parent="Qt71bgw4_jijU8MRH2HP-1">
          <mxGeometry x="830" y="480" width="40" height="20" as="geometry" />
        </mxCell>
        <mxCell id="_HtvMuEh33XnxZPbHY7F-24" value="(1,N)" style="text;html=1;align=center;verticalAlign=middle;resizable=0;points=[];autosize=1;strokeColor=none;fillColor=none;" vertex="1" parent="Qt71bgw4_jijU8MRH2HP-1">
          <mxGeometry x="590" y="490" width="40" height="20" as="geometry" />
        </mxCell>
        <mxCell id="_HtvMuEh33XnxZPbHY7F-25" value="(N,1)" style="text;html=1;align=center;verticalAlign=middle;resizable=0;points=[];autosize=1;strokeColor=none;fillColor=none;" vertex="1" parent="Qt71bgw4_jijU8MRH2HP-1">
          <mxGeometry x="700" y="450" width="40" height="20" as="geometry" />
        </mxCell>
        <mxCell id="_HtvMuEh33XnxZPbHY7F-42" style="edgeStyle=none;rounded=0;orthogonalLoop=1;jettySize=auto;html=1;exitX=1;exitY=0.5;exitDx=0;exitDy=0;entryX=0.062;entryY=0.56;entryDx=0;entryDy=0;entryPerimeter=0;endArrow=none;endFill=0;" edge="1" parent="Qt71bgw4_jijU8MRH2HP-1" source="_HtvMuEh33XnxZPbHY7F-31" target="_HtvMuEh33XnxZPbHY7F-41">
          <mxGeometry relative="1" as="geometry" />
        </mxCell>
        <mxCell id="_HtvMuEh33XnxZPbHY7F-44" style="edgeStyle=none;rounded=0;orthogonalLoop=1;jettySize=auto;html=1;exitX=0;exitY=0.5;exitDx=0;exitDy=0;entryX=0.757;entryY=1.01;entryDx=0;entryDy=0;entryPerimeter=0;endArrow=none;endFill=0;" edge="1" parent="Qt71bgw4_jijU8MRH2HP-1" source="_HtvMuEh33XnxZPbHY7F-31" target="_HtvMuEh33XnxZPbHY7F-33">
          <mxGeometry relative="1" as="geometry" />
        </mxCell>
        <mxCell id="_HtvMuEh33XnxZPbHY7F-54" style="edgeStyle=none;rounded=0;orthogonalLoop=1;jettySize=auto;html=1;exitX=1;exitY=1;exitDx=0;exitDy=0;entryX=0;entryY=0.5;entryDx=0;entryDy=0;endArrow=none;endFill=0;" edge="1" parent="Qt71bgw4_jijU8MRH2HP-1" source="_HtvMuEh33XnxZPbHY7F-31" target="_HtvMuEh33XnxZPbHY7F-53">
          <mxGeometry relative="1" as="geometry" />
        </mxCell>
        <mxCell id="_HtvMuEh33XnxZPbHY7F-57" style="edgeStyle=none;rounded=0;orthogonalLoop=1;jettySize=auto;html=1;exitX=0.5;exitY=1;exitDx=0;exitDy=0;entryX=0.718;entryY=-0.02;entryDx=0;entryDy=0;entryPerimeter=0;endArrow=none;endFill=0;" edge="1" parent="Qt71bgw4_jijU8MRH2HP-1" source="_HtvMuEh33XnxZPbHY7F-31" target="_HtvMuEh33XnxZPbHY7F-56">
          <mxGeometry relative="1" as="geometry" />
        </mxCell>
        <mxCell id="_HtvMuEh33XnxZPbHY7F-63" style="edgeStyle=none;rounded=0;orthogonalLoop=1;jettySize=auto;html=1;exitX=0.75;exitY=1;exitDx=0;exitDy=0;entryX=0;entryY=0.5;entryDx=0;entryDy=0;endArrow=none;endFill=0;" edge="1" parent="Qt71bgw4_jijU8MRH2HP-1" source="_HtvMuEh33XnxZPbHY7F-31" target="_HtvMuEh33XnxZPbHY7F-62">
          <mxGeometry relative="1" as="geometry" />
        </mxCell>
        <mxCell id="_HtvMuEh33XnxZPbHY7F-66" style="edgeStyle=none;rounded=0;orthogonalLoop=1;jettySize=auto;html=1;exitX=0.5;exitY=1;exitDx=0;exitDy=0;endArrow=none;endFill=0;" edge="1" parent="Qt71bgw4_jijU8MRH2HP-1" source="_HtvMuEh33XnxZPbHY7F-31" target="_HtvMuEh33XnxZPbHY7F-65">
          <mxGeometry relative="1" as="geometry" />
        </mxCell>
        <mxCell id="_HtvMuEh33XnxZPbHY7F-78" style="edgeStyle=none;rounded=0;orthogonalLoop=1;jettySize=auto;html=1;exitX=1;exitY=0.5;exitDx=0;exitDy=0;entryX=0;entryY=0.5;entryDx=0;entryDy=0;endArrow=none;endFill=0;" edge="1" parent="Qt71bgw4_jijU8MRH2HP-1" source="_HtvMuEh33XnxZPbHY7F-31" target="_HtvMuEh33XnxZPbHY7F-77">
          <mxGeometry relative="1" as="geometry" />
        </mxCell>
        <mxCell id="_HtvMuEh33XnxZPbHY7F-31" value="Estudiante del PIE" style="rounded=1;arcSize=10;whiteSpace=wrap;html=1;align=center;" vertex="1" parent="Qt71bgw4_jijU8MRH2HP-1">
          <mxGeometry x="120" y="700" width="100" height="40" as="geometry" />
        </mxCell>
        <mxCell id="_HtvMuEh33XnxZPbHY7F-32" value="Estados de avance" style="rounded=1;arcSize=10;whiteSpace=wrap;html=1;align=center;" vertex="1" parent="Qt71bgw4_jijU8MRH2HP-1">
          <mxGeometry x="560" y="1100" width="100" height="40" as="geometry" />
        </mxCell>
        <mxCell id="_HtvMuEh33XnxZPbHY7F-33" value="&lt;u&gt;rut&lt;/u&gt;" style="ellipse;whiteSpace=wrap;html=1;" vertex="1" parent="Qt71bgw4_jijU8MRH2HP-1">
          <mxGeometry x="20" y="630" width="80" height="40" as="geometry" />
        </mxCell>
        <mxCell id="_HtvMuEh33XnxZPbHY7F-45" style="edgeStyle=none;rounded=0;orthogonalLoop=1;jettySize=auto;html=1;exitX=1;exitY=0.5;exitDx=0;exitDy=0;entryX=0;entryY=0.75;entryDx=0;entryDy=0;endArrow=none;endFill=0;" edge="1" parent="Qt71bgw4_jijU8MRH2HP-1" source="_HtvMuEh33XnxZPbHY7F-34" target="_HtvMuEh33XnxZPbHY7F-31">
          <mxGeometry relative="1" as="geometry" />
        </mxCell>
        <mxCell id="_HtvMuEh33XnxZPbHY7F-34" value="nombre" style="ellipse;whiteSpace=wrap;html=1;" vertex="1" parent="Qt71bgw4_jijU8MRH2HP-1">
          <mxGeometry x="-30" y="670" width="80" height="40" as="geometry" />
        </mxCell>
        <mxCell id="_HtvMuEh33XnxZPbHY7F-46" style="edgeStyle=none;rounded=0;orthogonalLoop=1;jettySize=auto;html=1;exitX=1;exitY=0;exitDx=0;exitDy=0;entryX=0.19;entryY=1.03;entryDx=0;entryDy=0;entryPerimeter=0;endArrow=none;endFill=0;" edge="1" parent="Qt71bgw4_jijU8MRH2HP-1" source="_HtvMuEh33XnxZPbHY7F-35" target="_HtvMuEh33XnxZPbHY7F-31">
          <mxGeometry relative="1" as="geometry" />
        </mxCell>
        <mxCell id="_HtvMuEh33XnxZPbHY7F-35" value="Fecha nacimiento" style="ellipse;whiteSpace=wrap;html=1;" vertex="1" parent="Qt71bgw4_jijU8MRH2HP-1">
          <mxGeometry x="-50" y="720" width="80" height="40" as="geometry" />
        </mxCell>
        <mxCell id="_HtvMuEh33XnxZPbHY7F-47" style="edgeStyle=none;rounded=0;orthogonalLoop=1;jettySize=auto;html=1;exitX=0.5;exitY=0;exitDx=0;exitDy=0;entryX=0.5;entryY=1;entryDx=0;entryDy=0;endArrow=none;endFill=0;" edge="1" parent="Qt71bgw4_jijU8MRH2HP-1" source="_HtvMuEh33XnxZPbHY7F-37" target="_HtvMuEh33XnxZPbHY7F-31">
          <mxGeometry relative="1" as="geometry" />
        </mxCell>
        <mxCell id="_HtvMuEh33XnxZPbHY7F-37" value="diagnostico" style="ellipse;whiteSpace=wrap;html=1;" vertex="1" parent="Qt71bgw4_jijU8MRH2HP-1">
          <mxGeometry x="-30" y="780" width="80" height="40" as="geometry" />
        </mxCell>
        <mxCell id="_HtvMuEh33XnxZPbHY7F-40" value="apoderado" style="rounded=1;arcSize=10;whiteSpace=wrap;html=1;align=center;" vertex="1" parent="Qt71bgw4_jijU8MRH2HP-1">
          <mxGeometry x="540" y="855" width="100" height="40" as="geometry" />
        </mxCell>
        <mxCell id="_HtvMuEh33XnxZPbHY7F-43" style="edgeStyle=none;rounded=0;orthogonalLoop=1;jettySize=auto;html=1;exitX=1;exitY=0.5;exitDx=0;exitDy=0;endArrow=none;endFill=0;" edge="1" parent="Qt71bgw4_jijU8MRH2HP-1" source="_HtvMuEh33XnxZPbHY7F-41" target="_HtvMuEh33XnxZPbHY7F-40">
          <mxGeometry relative="1" as="geometry" />
        </mxCell>
        <mxCell id="_HtvMuEh33XnxZPbHY7F-41" value="tiene" style="shape=rhombus;perimeter=rhombusPerimeter;whiteSpace=wrap;html=1;align=center;" vertex="1" parent="Qt71bgw4_jijU8MRH2HP-1">
          <mxGeometry x="340" y="845" width="120" height="60" as="geometry" />
        </mxCell>
        <mxCell id="_HtvMuEh33XnxZPbHY7F-49" style="edgeStyle=none;rounded=0;orthogonalLoop=1;jettySize=auto;html=1;exitX=0.5;exitY=0;exitDx=0;exitDy=0;endArrow=none;endFill=0;" edge="1" parent="Qt71bgw4_jijU8MRH2HP-1" source="_HtvMuEh33XnxZPbHY7F-48" target="_HtvMuEh33XnxZPbHY7F-31">
          <mxGeometry relative="1" as="geometry" />
        </mxCell>
        <mxCell id="_HtvMuEh33XnxZPbHY7F-48" value="profesionales_a _cargo" style="ellipse;whiteSpace=wrap;html=1;" vertex="1" parent="Qt71bgw4_jijU8MRH2HP-1">
          <mxGeometry x="50" y="850" width="80" height="40" as="geometry" />
        </mxCell>
        <mxCell id="_HtvMuEh33XnxZPbHY7F-52" value="informes de evaluación" style="rounded=1;arcSize=10;whiteSpace=wrap;html=1;align=center;" vertex="1" parent="Qt71bgw4_jijU8MRH2HP-1">
          <mxGeometry x="550" y="980" width="100" height="40" as="geometry" />
        </mxCell>
        <mxCell id="_HtvMuEh33XnxZPbHY7F-55" style="edgeStyle=none;rounded=0;orthogonalLoop=1;jettySize=auto;html=1;exitX=1;exitY=0.5;exitDx=0;exitDy=0;entryX=0;entryY=0.5;entryDx=0;entryDy=0;endArrow=none;endFill=0;" edge="1" parent="Qt71bgw4_jijU8MRH2HP-1" source="_HtvMuEh33XnxZPbHY7F-53" target="_HtvMuEh33XnxZPbHY7F-52">
          <mxGeometry relative="1" as="geometry" />
        </mxCell>
        <mxCell id="_HtvMuEh33XnxZPbHY7F-53" value="tiene" style="shape=rhombus;perimeter=rhombusPerimeter;whiteSpace=wrap;html=1;align=center;" vertex="1" parent="Qt71bgw4_jijU8MRH2HP-1">
          <mxGeometry x="340" y="970" width="120" height="60" as="geometry" />
        </mxCell>
        <mxCell id="_HtvMuEh33XnxZPbHY7F-56" value="fecha_diagnostico" style="ellipse;whiteSpace=wrap;html=1;" vertex="1" parent="Qt71bgw4_jijU8MRH2HP-1">
          <mxGeometry x="-70" y="840" width="110" height="40" as="geometry" />
        </mxCell>
        <mxCell id="_HtvMuEh33XnxZPbHY7F-67" style="edgeStyle=none;rounded=0;orthogonalLoop=1;jettySize=auto;html=1;exitX=0.5;exitY=1;exitDx=0;exitDy=0;entryX=0.578;entryY=-0.03;entryDx=0;entryDy=0;entryPerimeter=0;endArrow=none;endFill=0;" edge="1" parent="Qt71bgw4_jijU8MRH2HP-1" source="_HtvMuEh33XnxZPbHY7F-58" target="_HtvMuEh33XnxZPbHY7F-40">
          <mxGeometry relative="1" as="geometry" />
        </mxCell>
        <mxCell id="_HtvMuEh33XnxZPbHY7F-58" value="&lt;u&gt;rut&lt;/u&gt;" style="ellipse;whiteSpace=wrap;html=1;" vertex="1" parent="Qt71bgw4_jijU8MRH2HP-1">
          <mxGeometry x="570" y="785" width="80" height="40" as="geometry" />
        </mxCell>
        <mxCell id="_HtvMuEh33XnxZPbHY7F-68" style="edgeStyle=none;rounded=0;orthogonalLoop=1;jettySize=auto;html=1;exitX=0;exitY=0.5;exitDx=0;exitDy=0;entryX=0.75;entryY=0;entryDx=0;entryDy=0;endArrow=none;endFill=0;" edge="1" parent="Qt71bgw4_jijU8MRH2HP-1" source="_HtvMuEh33XnxZPbHY7F-59" target="_HtvMuEh33XnxZPbHY7F-40">
          <mxGeometry relative="1" as="geometry" />
        </mxCell>
        <mxCell id="_HtvMuEh33XnxZPbHY7F-59" value="nombre" style="ellipse;whiteSpace=wrap;html=1;" vertex="1" parent="Qt71bgw4_jijU8MRH2HP-1">
          <mxGeometry x="660" y="815" width="80" height="40" as="geometry" />
        </mxCell>
        <mxCell id="_HtvMuEh33XnxZPbHY7F-69" style="edgeStyle=none;rounded=0;orthogonalLoop=1;jettySize=auto;html=1;exitX=0;exitY=0.5;exitDx=0;exitDy=0;endArrow=none;endFill=0;" edge="1" parent="Qt71bgw4_jijU8MRH2HP-1" source="_HtvMuEh33XnxZPbHY7F-60" target="_HtvMuEh33XnxZPbHY7F-40">
          <mxGeometry relative="1" as="geometry" />
        </mxCell>
        <mxCell id="_HtvMuEh33XnxZPbHY7F-60" value="telefono" style="ellipse;whiteSpace=wrap;html=1;" vertex="1" parent="Qt71bgw4_jijU8MRH2HP-1">
          <mxGeometry x="660" y="865" width="80" height="40" as="geometry" />
        </mxCell>
        <mxCell id="_HtvMuEh33XnxZPbHY7F-70" style="edgeStyle=none;rounded=0;orthogonalLoop=1;jettySize=auto;html=1;exitX=0;exitY=0.5;exitDx=0;exitDy=0;entryX=1;entryY=1;entryDx=0;entryDy=0;endArrow=none;endFill=0;" edge="1" parent="Qt71bgw4_jijU8MRH2HP-1" source="_HtvMuEh33XnxZPbHY7F-61" target="_HtvMuEh33XnxZPbHY7F-40">
          <mxGeometry relative="1" as="geometry" />
        </mxCell>
        <mxCell id="_HtvMuEh33XnxZPbHY7F-61" value="dirección" style="ellipse;whiteSpace=wrap;html=1;" vertex="1" parent="Qt71bgw4_jijU8MRH2HP-1">
          <mxGeometry x="670" y="925" width="80" height="40" as="geometry" />
        </mxCell>
        <mxCell id="_HtvMuEh33XnxZPbHY7F-64" style="edgeStyle=none;rounded=0;orthogonalLoop=1;jettySize=auto;html=1;exitX=1;exitY=0.5;exitDx=0;exitDy=0;entryX=0;entryY=0.5;entryDx=0;entryDy=0;endArrow=none;endFill=0;" edge="1" parent="Qt71bgw4_jijU8MRH2HP-1" source="_HtvMuEh33XnxZPbHY7F-62" target="_HtvMuEh33XnxZPbHY7F-32">
          <mxGeometry relative="1" as="geometry" />
        </mxCell>
        <mxCell id="_HtvMuEh33XnxZPbHY7F-62" value="tiene" style="shape=rhombus;perimeter=rhombusPerimeter;whiteSpace=wrap;html=1;align=center;" vertex="1" parent="Qt71bgw4_jijU8MRH2HP-1">
          <mxGeometry x="330" y="1090" width="120" height="60" as="geometry" />
        </mxCell>
        <mxCell id="_HtvMuEh33XnxZPbHY7F-65" value="tipo de NEE" style="ellipse;whiteSpace=wrap;html=1;" vertex="1" parent="Qt71bgw4_jijU8MRH2HP-1">
          <mxGeometry x="130" y="860" width="80" height="40" as="geometry" />
        </mxCell>
        <mxCell id="_HtvMuEh33XnxZPbHY7F-71" value="(1,N)" style="text;html=1;align=center;verticalAlign=middle;resizable=0;points=[];autosize=1;strokeColor=none;fillColor=none;" vertex="1" parent="Qt71bgw4_jijU8MRH2HP-1">
          <mxGeometry x="170" y="670" width="40" height="20" as="geometry" />
        </mxCell>
        <mxCell id="_HtvMuEh33XnxZPbHY7F-72" value="(1,N)" style="text;html=1;align=center;verticalAlign=middle;resizable=0;points=[];autosize=1;strokeColor=none;fillColor=none;" vertex="1" parent="Qt71bgw4_jijU8MRH2HP-1">
          <mxGeometry x="160" y="330" width="40" height="20" as="geometry" />
        </mxCell>
        <mxCell id="_HtvMuEh33XnxZPbHY7F-73" value="(N,N)" style="text;html=1;align=center;verticalAlign=middle;resizable=0;points=[];autosize=1;strokeColor=none;fillColor=none;" vertex="1" parent="Qt71bgw4_jijU8MRH2HP-1">
          <mxGeometry x="220" y="500" width="40" height="20" as="geometry" />
        </mxCell>
        <mxCell id="_HtvMuEh33XnxZPbHY7F-76" style="edgeStyle=none;rounded=0;orthogonalLoop=1;jettySize=auto;html=1;exitX=1;exitY=0.5;exitDx=0;exitDy=0;entryX=0;entryY=0.75;entryDx=0;entryDy=0;endArrow=none;endFill=0;" edge="1" parent="Qt71bgw4_jijU8MRH2HP-1" source="_HtvMuEh33XnxZPbHY7F-74" target="Qt71bgw4_jijU8MRH2HP-4">
          <mxGeometry relative="1" as="geometry" />
        </mxCell>
        <mxCell id="_HtvMuEh33XnxZPbHY7F-74" value="tiene" style="shape=rhombus;perimeter=rhombusPerimeter;whiteSpace=wrap;html=1;align=center;" vertex="1" parent="Qt71bgw4_jijU8MRH2HP-1">
          <mxGeometry x="260" y="280" width="120" height="60" as="geometry" />
        </mxCell>
        <mxCell id="_HtvMuEh33XnxZPbHY7F-79" style="edgeStyle=none;rounded=0;orthogonalLoop=1;jettySize=auto;html=1;exitX=1;exitY=0.5;exitDx=0;exitDy=0;entryX=0.5;entryY=1;entryDx=0;entryDy=0;endArrow=none;endFill=0;" edge="1" parent="Qt71bgw4_jijU8MRH2HP-1" source="_HtvMuEh33XnxZPbHY7F-77" target="_HtvMuEh33XnxZPbHY7F-5">
          <mxGeometry relative="1" as="geometry" />
        </mxCell>
        <mxCell id="_HtvMuEh33XnxZPbHY7F-77" value="pertenece" style="shape=rhombus;perimeter=rhombusPerimeter;whiteSpace=wrap;html=1;align=center;" vertex="1" parent="Qt71bgw4_jijU8MRH2HP-1">
          <mxGeometry x="370" y="690" width="120" height="60" as="geometry" />
        </mxCell>
        <mxCell id="_HtvMuEh33XnxZPbHY7F-80" value="nivel" style="ellipse;whiteSpace=wrap;html=1;" vertex="1" parent="Qt71bgw4_jijU8MRH2HP-1">
          <mxGeometry x="520" y="420" width="80" height="40" as="geometry" />
        </mxCell>
        <mxCell id="_HtvMuEh33XnxZPbHY7F-82" value="(1,1)" style="text;html=1;align=center;verticalAlign=middle;resizable=0;points=[];autosize=1;strokeColor=none;fillColor=none;" vertex="1" parent="Qt71bgw4_jijU8MRH2HP-1">
          <mxGeometry x="540" y="550" width="40" height="20" as="geometry" />
        </mxCell>
        <mxCell id="_HtvMuEh33XnxZPbHY7F-83" value="(1,N)" style="text;html=1;align=center;verticalAlign=middle;resizable=0;points=[];autosize=1;strokeColor=none;fillColor=none;" vertex="1" parent="Qt71bgw4_jijU8MRH2HP-1">
          <mxGeometry x="230" y="690" width="40" height="20" as="geometry" />
        </mxCell>
        <mxCell id="_HtvMuEh33XnxZPbHY7F-84" value="(N,1)" style="text;html=1;align=center;verticalAlign=middle;resizable=0;points=[];autosize=1;strokeColor=none;fillColor=none;" vertex="1" parent="Qt71bgw4_jijU8MRH2HP-1">
          <mxGeometry x="410" y="660" width="40" height="20" as="geometry" />
        </mxCell>
        <mxCell id="_HtvMuEh33XnxZPbHY7F-85" value="(1,2)" style="text;html=1;align=center;verticalAlign=middle;resizable=0;points=[];autosize=1;strokeColor=none;fillColor=none;" vertex="1" parent="Qt71bgw4_jijU8MRH2HP-1">
          <mxGeometry x="500" y="835" width="40" height="20" as="geometry" />
        </mxCell>
        <mxCell id="_HtvMuEh33XnxZPbHY7F-86" value="(1,N)" style="text;html=1;align=center;verticalAlign=middle;resizable=0;points=[];autosize=1;strokeColor=none;fillColor=none;" vertex="1" parent="Qt71bgw4_jijU8MRH2HP-1">
          <mxGeometry x="240" y="740" width="40" height="20" as="geometry" />
        </mxCell>
        <mxCell id="_HtvMuEh33XnxZPbHY7F-87" value="(N,2)" style="text;html=1;align=center;verticalAlign=middle;resizable=0;points=[];autosize=1;strokeColor=none;fillColor=none;" vertex="1" parent="Qt71bgw4_jijU8MRH2HP-1">
          <mxGeometry x="380" y="825" width="40" height="20" as="geometry" />
        </mxCell>
        <mxCell id="_HtvMuEh33XnxZPbHY7F-88" value="(1,N)" style="text;html=1;align=center;verticalAlign=middle;resizable=0;points=[];autosize=1;strokeColor=none;fillColor=none;" vertex="1" parent="Qt71bgw4_jijU8MRH2HP-1">
          <mxGeometry x="500" y="980" width="40" height="20" as="geometry" />
        </mxCell>
        <mxCell id="_HtvMuEh33XnxZPbHY7F-89" value="(1,1)" style="text;html=1;align=center;verticalAlign=middle;resizable=0;points=[];autosize=1;strokeColor=none;fillColor=none;" vertex="1" parent="Qt71bgw4_jijU8MRH2HP-1">
          <mxGeometry x="250" y="830" width="40" height="20" as="geometry" />
        </mxCell>
        <mxCell id="_HtvMuEh33XnxZPbHY7F-90" value="(1,N)" style="text;html=1;align=center;verticalAlign=middle;resizable=0;points=[];autosize=1;strokeColor=none;fillColor=none;" vertex="1" parent="Qt71bgw4_jijU8MRH2HP-1">
          <mxGeometry x="380" y="950" width="40" height="20" as="geometry" />
        </mxCell>
        <mxCell id="_HtvMuEh33XnxZPbHY7F-91" value="(1,N)" style="text;html=1;align=center;verticalAlign=middle;resizable=0;points=[];autosize=1;strokeColor=none;fillColor=none;" vertex="1" parent="Qt71bgw4_jijU8MRH2HP-1">
          <mxGeometry x="500" y="1090" width="40" height="20" as="geometry" />
        </mxCell>
        <mxCell id="_HtvMuEh33XnxZPbHY7F-92" value="(1,1)" style="text;html=1;align=center;verticalAlign=middle;resizable=0;points=[];autosize=1;strokeColor=none;fillColor=none;" vertex="1" parent="Qt71bgw4_jijU8MRH2HP-1">
          <mxGeometry x="230" y="970" width="40" height="20" as="geometry" />
        </mxCell>
        <mxCell id="_HtvMuEh33XnxZPbHY7F-93" value="(1,N)" style="text;html=1;align=center;verticalAlign=middle;resizable=0;points=[];autosize=1;strokeColor=none;fillColor=none;" vertex="1" parent="Qt71bgw4_jijU8MRH2HP-1">
          <mxGeometry x="370" y="1060" width="40" height="20" as="geometry" />
        </mxCell>
        <mxCell id="_HtvMuEh33XnxZPbHY7F-94" value="&lt;u&gt;id&lt;/u&gt;" style="ellipse;whiteSpace=wrap;html=1;" vertex="1" parent="Qt71bgw4_jijU8MRH2HP-1">
          <mxGeometry x="630" y="210" width="80" height="40" as="geometry" />
        </mxCell>
        <mxCell id="_HtvMuEh33XnxZPbHY7F-95" value="descripcion" style="ellipse;whiteSpace=wrap;html=1;" vertex="1" parent="Qt71bgw4_jijU8MRH2HP-1">
          <mxGeometry x="630" y="270" width="80" height="40" as="geometry" />
        </mxCell>
      </root>
    </mxGraphModel>
  </diagram>
</mxfile>
